<?xml version="1.0" standalone="no"?>
<!DOCTYPE svg PUBLIC "-//W3C//DTD SVG 20010904//EN"
 "http://www.w3.org/TR/2001/REC-SVG-20010904/DTD/svg10.dtd">
<svg version="1.0" xmlns="http://www.w3.org/2000/svg"
 width="400.000000pt" height="400.000000pt" viewBox="0 0 400.000000 400.000000"
 preserveAspectRatio="xMidYMid meet">
<metadata>
Created by potrace 1.15, written by Peter Selinger 2001-2017
</metadata>
<g transform="translate(0.000000,400.000000) scale(0.100000,-0.100000)"
fill="#000000" stroke="none">
<path d="M1690 3979 c-28 -12 -76 -54 -93 -84 -7 -12 -14 -83 -17 -169 l-5
-149 -95 -32 c-560 -189 -977 -678 -1101 -1291 -15 -78 -23 -160 -26 -291 -6
-205 5 -324 43 -487 19 -77 24 -116 18 -136 -7 -20 -47 -56 -144 -127 -169
-124 -204 -173 -186 -267 7 -35 209 -362 252 -407 31 -33 93 -52 139 -43 22 4
88 44 172 105 75 55 141 99 147 99 7 0 34 -23 61 -51 214 -219 497 -372 815
-440 151 -33 418 -33 575 -1 300 60 564 196 777 400 45 43 87 73 124 88 l57
23 160 -86 c140 -76 167 -87 208 -86 92 1 108 20 220 250 104 213 120 266 100
326 -21 61 -47 83 -199 166 l-149 81 -9 47 c-7 36 -5 69 8 132 141 698 -152
1428 -726 1813 -143 95 -320 176 -456 208 -30 7 -58 18 -62 24 -4 6 -8 68 -7
137 1 134 -6 159 -52 208 -43 46 -73 51 -306 50 -120 0 -229 -5 -243 -10z
m474 -120 l26 -20 0 -230 c0 -127 4 -229 9 -229 5 0 31 -20 58 -44 93 -84 143
-217 143 -386 l0 -85 -23 27 c-74 87 -185 52 -206 -65 -7 -40 -8 -41 -19 -20
-26 47 -107 68 -149 38 -19 -13 -22 -13 -37 10 -21 32 -57 49 -136 65 -61 12
-102 30 -69 30 8 0 35 13 60 28 61 39 98 110 106 202 7 89 -12 96 -21 8 -9
-76 -33 -134 -72 -170 -31 -29 -101 -58 -140 -58 -14 0 -24 -6 -24 -14 0 -14
86 -41 180 -55 59 -9 103 -46 116 -96 16 -62 -29 -148 -84 -159 -41 -9 -386
69 -424 95 -36 26 -58 74 -58 126 0 51 64 284 99 358 37 79 73 121 132 151
l49 24 0 221 0 220 25 24 c24 25 25 25 228 25 192 0 206 -1 231 -21z m179
-960 c42 -33 49 -75 45 -292 l-3 -199 -33 -29 c-52 -47 -122 -35 -147 26 -18
42 -21 407 -4 452 22 61 92 82 142 42z m-222 -88 c17 -17 29 -40 29 -55 0 -14
1 -105 1 -201 0 -96 -1 -186 -1 -199 0 -14 -12 -38 -26 -55 -42 -51 -118 -41
-149 19 -21 41 -21 346 0 374 9 12 15 42 15 71 0 44 3 54 23 63 40 20 77 14
108 -17z m-433 -376 c1 -138 -1 -219 -9 -237 -16 -40 -70 -62 -115 -48 -59 20
-64 41 -64 280 0 116 4 219 10 229 9 17 13 18 92 2 l83 -17 3 -209z m122 184
c35 -7 60 -8 80 0 l30 10 1 -152 c0 -84 2 -163 4 -177 16 -119 -130 -179 -180
-75 -12 26 -15 72 -15 219 0 208 -7 194 80 175z m562 -526 c110 -84 508 -427
508 -436 -1 -7 -34 -57 -75 -112 -41 -55 -77 -112 -81 -127 -5 -26 -9 -28 -42
-23 -20 3 -82 12 -137 19 -99 14 -176 45 -516 206 -86 40 -58 190 36 190 20 0
143 -50 320 -130 158 -71 290 -130 291 -130 25 0 -32 56 -217 210 -232 193
-257 222 -244 281 8 37 59 79 94 79 15 0 44 -12 63 -27z m-947 -5 c36 -32 43
-85 16 -120 -12 -15 -91 -77 -176 -139 -122 -89 -155 -118 -155 -136 0 -15 6
-23 18 -23 9 0 122 77 251 170 252 183 267 190 318 146 22 -19 28 -32 27 -65
-1 -22 -7 -47 -13 -55 -7 -8 -107 -83 -222 -167 -166 -122 -209 -158 -207
-174 2 -11 10 -21 18 -22 8 -2 121 74 250 169 194 142 241 172 269 172 60 0
102 -77 71 -134 -5 -10 -116 -96 -245 -190 -167 -122 -235 -177 -235 -191 0
-45 33 -28 213 104 102 74 194 138 206 142 29 9 75 -11 90 -39 7 -12 11 -40 9
-61 -4 -47 -1 -44 -351 -299 -136 -99 -247 -183 -247 -187 0 -4 52 -9 116 -11
l116 -3 29 -33 c38 -42 41 -107 6 -148 -32 -37 -79 -42 -392 -43 -273 0 -271
-1 -390 49 -30 12 -34 10 -182 -99 -161 -117 -192 -130 -227 -92 -37 41 -226
347 -226 366 0 36 26 61 184 176 86 63 152 117 150 124 -9 22 15 136 40 190
13 29 43 74 67 100 36 39 523 405 683 512 57 39 85 41 121 11z m1688 -341 c41
-18 210 -163 260 -224 47 -58 65 -100 73 -169 l7 -54 158 -86 c160 -86 189
-109 189 -152 0 -32 -166 -383 -192 -404 -11 -10 -31 -18 -44 -18 -13 0 -100
42 -194 93 l-171 94 -54 -28 c-124 -62 -224 -48 -432 62 -74 39 -133 72 -131
74 2 1 62 -6 133 -16 211 -30 246 -25 280 41 39 75 -12 178 -89 180 -18 0 -18
1 3 24 12 13 25 41 28 62 5 29 61 123 97 161 0 1 2 -24 2 -55 1 -37 8 -72 22
-98 32 -63 130 -141 150 -119 4 4 1 10 -6 12 -32 12 -99 72 -120 108 -19 34
-22 50 -18 110 2 39 8 82 11 98 13 48 -10 29 -80 -67 -78 -108 -104 -125 -165
-107 -52 15 -85 62 -84 117 1 35 15 60 110 190 134 182 171 207 257 171z
m-492 -369 c95 -11 96 -12 108 -43 20 -57 63 -87 131 -94 l60 -6 -17 -35 c-28
-54 -50 -57 -246 -31 -94 12 -185 27 -200 33 -58 22 -74 106 -31 157 30 36 47
38 195 19z m59 -238 c41 -5 115 -14 163 -19 69 -7 93 -13 111 -31 32 -29 40
-74 20 -115 -27 -57 -48 -60 -253 -31 -101 13 -189 30 -198 38 -24 20 -42 70
-36 101 8 39 59 79 92 73 14 -3 60 -10 101 -16z"/>
</g>
</svg>
